<svg width="8" height="8" viewBox="0 0 8 8" fill="none" xmlns="http://www.w3.org/2000/svg">
<path d="M3.58452 8.00091C3.47862 8.00091 3.37271 7.96009 3.29124 7.87846L0.1222 4.70289C0.0488798 4.62942 0 4.5233 0 4.40901C0 4.30289 0.0407332 4.17227 0.1222 4.0988L3.29124 0.923232C3.45418 0.759964 3.71487 0.759964 3.8778 0.923232C4.04073 1.0865 4.04073 1.34773 3.8778 1.511L0.985743 4.40085L3.8778 7.29886C4.04073 7.46213 4.04073 7.72336 3.8778 7.88662C3.79633 7.96009 3.69043 8.00091 3.58452 8.00091Z" fill="#666666"/>
<path d="M7.58452 8.00091C7.47862 8.00091 7.37271 7.96009 7.29124 7.87846L4.1222 4.70289C4.04888 4.62942 4 4.5233 4 4.40901C4 4.30289 4.04073 4.17227 4.1222 4.0988L7.29124 0.923232C7.45418 0.759964 7.71487 0.759964 7.8778 0.923232C8.04073 1.0865 8.04073 1.34773 7.8778 1.511L4.98574 4.40085L7.8778 7.29886C8.04073 7.46213 8.04073 7.72336 7.8778 7.88662C7.79633 7.96009 7.69043 8.00091 7.58452 8.00091Z" fill="#666666"/>
</svg>
