<svg width="12" height="12" viewBox="0 0 12 12" fill="none" xmlns="http://www.w3.org/2000/svg">
<path d="M0.926976 2.1854C0.579842 1.83826 0.579843 1.27545 0.926978 0.928317C1.27411 0.581185 1.83692 0.581186 2.18406 0.928319L5.99995 4.74421L9.81581 0.928319C10.163 0.581186 10.7258 0.581185 11.0729 0.928317C11.4201 1.27545 11.4201 1.83826 11.0729 2.1854L7.25701 6.00129L11.0729 9.81716C11.4201 10.1643 11.4201 10.7271 11.0729 11.0743C10.7258 11.4214 10.163 11.4214 9.81581 11.0743L5.99995 7.25835L2.18406 11.0743C1.83692 11.4214 1.27411 11.4214 0.926978 11.0743C0.579843 10.7271 0.579842 10.1643 0.926976 9.81716L4.74286 6.00129L0.926976 2.1854Z" fill="white"/>
</svg>
