<svg width="18" height="18" viewBox="0 0 18 18" fill="none" xmlns="http://www.w3.org/2000/svg">
<path d="M12.7799 4.3688C12.6118 4.3688 12.4474 4.41865 12.3077 4.51205C12.1679 4.60545 12.0589 4.7382 11.9946 4.89352C11.9303 5.04884 11.9134 5.21974 11.9462 5.38463C11.979 5.54951 12.06 5.70097 12.1789 5.81984C12.2977 5.93872 12.4492 6.01967 12.6141 6.05247C12.779 6.08527 12.9499 6.06843 13.1052 6.0041C13.2605 5.93976 13.3932 5.83082 13.4866 5.69104C13.58 5.55125 13.6299 5.38692 13.6299 5.2188C13.6299 4.99337 13.5403 4.77717 13.3809 4.61776C13.2215 4.45836 13.0053 4.3688 12.7799 4.3688ZM16.0382 6.08297C16.0245 5.49526 15.9144 4.9138 15.7124 4.36172C15.5323 3.88935 15.252 3.46162 14.8907 3.10797C14.54 2.7449 14.1112 2.46634 13.637 2.29339C13.0864 2.08525 12.5042 1.97266 11.9157 1.96047C11.1649 1.91797 10.9241 1.91797 8.9974 1.91797C7.07073 1.91797 6.8299 1.91797 6.07906 1.96047C5.49055 1.97266 4.90843 2.08525 4.35781 2.29339C3.88442 2.46809 3.45606 2.74641 3.10406 3.10797C2.74099 3.45872 2.46244 3.88745 2.28948 4.36172C2.08134 4.91234 1.96875 5.49445 1.95656 6.08297C1.91406 6.8338 1.91406 7.07464 1.91406 9.0013C1.91406 10.928 1.91406 11.1688 1.95656 11.9196C1.96875 12.5082 2.08134 13.0903 2.28948 13.6409C2.46244 14.1152 2.74099 14.5439 3.10406 14.8946C3.45606 15.2562 3.88442 15.5345 4.35781 15.7092C4.90843 15.9174 5.49055 16.0299 6.07906 16.0421C6.8299 16.0846 7.07073 16.0846 8.9974 16.0846C10.9241 16.0846 11.1649 16.0846 11.9157 16.0421C12.5042 16.0299 13.0864 15.9174 13.637 15.7092C14.1112 15.5363 14.54 15.2577 14.8907 14.8946C15.2536 14.5423 15.5341 14.1142 15.7124 13.6409C15.9144 13.0888 16.0245 12.5073 16.0382 11.9196C16.0382 11.1688 16.0807 10.928 16.0807 9.0013C16.0807 7.07464 16.0807 6.8338 16.0382 6.08297ZM14.7632 11.8346C14.7581 12.2843 14.6766 12.7298 14.5224 13.1521C14.4093 13.4604 14.2276 13.7389 13.9911 13.9667C13.7614 14.2008 13.4834 14.3821 13.1766 14.498C12.7542 14.6522 12.3087 14.7336 11.8591 14.7388C11.1507 14.7742 10.8886 14.7813 9.02573 14.7813C7.16281 14.7813 6.90073 14.7813 6.1924 14.7388C5.72553 14.7475 5.26065 14.6757 4.81823 14.5263C4.52482 14.4045 4.25961 14.2237 4.03906 13.9951C3.80396 13.7675 3.62458 13.4887 3.5149 13.1805C3.34196 12.752 3.24604 12.2964 3.23156 11.8346C3.23156 11.1263 3.18906 10.8642 3.18906 9.0013C3.18906 7.13839 3.18906 6.8763 3.23156 6.16797C3.23474 5.7083 3.31865 5.25276 3.47948 4.82214C3.60418 4.52316 3.79558 4.25664 4.03906 4.04297C4.25426 3.79942 4.52022 3.60599 4.81823 3.4763C5.24999 3.3205 5.70506 3.23907 6.16406 3.23547C6.8724 3.23547 7.13448 3.19297 8.9974 3.19297C10.8603 3.19297 11.1224 3.19297 11.8307 3.23547C12.2804 3.24063 12.7259 3.32206 13.1482 3.4763C13.4701 3.59576 13.759 3.78999 13.9911 4.04297C14.2233 4.26055 14.4046 4.52657 14.5224 4.82214C14.6798 5.25346 14.7613 5.70881 14.7632 6.16797C14.7986 6.8763 14.8057 7.13839 14.8057 9.0013C14.8057 10.8642 14.7986 11.1263 14.7632 11.8346ZM8.9974 5.36755C8.27901 5.36895 7.57716 5.58326 6.98053 5.98339C6.38389 6.38352 5.91925 6.95152 5.6453 7.61563C5.37136 8.27973 5.30041 9.01013 5.44142 9.71454C5.58242 10.419 5.92906 11.0658 6.43753 11.5732C6.946 12.0807 7.59349 12.4261 8.29817 12.5657C9.00286 12.7054 9.73312 12.633 10.3967 12.3578C11.0603 12.0825 11.6274 11.6168 12.0263 11.0194C12.4253 10.422 12.6382 9.71969 12.6382 9.0013C12.6392 8.52325 12.5456 8.04973 12.3629 7.60798C12.1801 7.16623 11.9119 6.76496 11.5735 6.42725C11.2351 6.08955 10.8334 5.82207 10.3913 5.64021C9.94914 5.45835 9.47544 5.36568 8.9974 5.36755ZM8.9974 11.3601C8.53088 11.3601 8.07484 11.2217 7.68694 10.9625C7.29905 10.7033 6.99672 10.335 6.81819 9.90396C6.63967 9.47295 6.59296 8.99869 6.68397 8.54113C6.77498 8.08358 6.99963 7.66329 7.32951 7.33341C7.65938 7.00354 8.07967 6.77889 8.53723 6.68787C8.99478 6.59686 9.46905 6.64357 9.90005 6.8221C10.3311 7.00063 10.6994 7.30296 10.9586 7.69085C11.2178 8.07874 11.3561 8.53479 11.3561 9.0013C11.3561 9.31106 11.2951 9.61778 11.1766 9.90396C11.0581 10.1901 10.8843 10.4502 10.6653 10.6692C10.4463 10.8882 10.1862 11.062 9.90005 11.1805C9.61387 11.299 9.30715 11.3601 8.9974 11.3601Z" fill="#A5A5A5"/>
</svg>
