<svg width="11" height="14" viewBox="0 0 11 14" fill="none" xmlns="http://www.w3.org/2000/svg">
<path d="M6.57385 4.56688L6.57325 4.56627C6.22635 4.21996 5.79453 4.03992 5.30477 4.03992C4.81499 4.03992 4.38323 4.21999 4.03664 4.56658C3.68981 4.91341 3.50934 5.34532 3.50934 5.83535C3.50934 6.32526 3.68973 6.75701 4.03664 7.10348C4.38311 7.45039 4.81486 7.63078 5.30477 7.63078C5.79481 7.63078 6.22671 7.45031 6.57355 7.10348C6.92013 6.7569 7.1002 6.32513 7.1002 5.83535C7.1002 5.34559 6.92016 4.91378 6.57385 4.56688ZM2.02493 2.46238L2.025 2.46231C2.9776 1.58356 4.06399 1.15363 5.30477 1.15363C6.54556 1.15363 7.63194 1.58356 8.58454 2.46231L8.58462 2.46238C9.50885 3.3146 9.9865 4.46334 9.9865 5.96489C9.9865 6.87437 9.64518 7.89481 8.90172 9.03606C8.15882 10.176 7.01976 11.4329 5.46653 12.806C5.44895 12.8199 5.42427 12.8348 5.3883 12.8483C5.35423 12.8611 5.3272 12.865 5.30477 12.865C5.28234 12.865 5.25532 12.8611 5.22125 12.8483C5.18528 12.8348 5.1606 12.8199 5.14301 12.806C3.58978 11.4329 2.45073 10.176 1.70783 9.03606C0.964362 7.89481 0.623047 6.87437 0.623047 5.96489C0.623047 4.46334 1.1007 3.3146 2.02493 2.46238Z" stroke="#666666"/>
</svg>
