<svg width="14" height="17" viewBox="0 0 14 17" fill="none" xmlns="http://www.w3.org/2000/svg">
<path d="M12.7768 11.8428C11.8224 10.8884 11.2862 9.59395 11.2862 8.24422V6.98176C11.2862 4.97355 9.90491 3.28817 8.04062 2.82332V1.54025C8.04062 0.965764 7.57486 0.5 7.00033 0.5C6.42581 0.5 5.96008 0.965764 5.96008 1.54025V2.82329C4.09579 3.28817 2.7145 4.97352 2.7145 6.98172V8.24418C2.7145 9.59391 2.17831 10.8883 1.22391 11.8428C0.804409 12.2623 0.678913 12.8932 0.905947 13.4413C1.13298 13.9894 1.66783 14.3468 2.2611 14.3468H4.84711C4.84711 15.536 5.81116 16.5 7.00033 16.5C8.18951 16.5 9.15355 15.536 9.15355 14.3468H11.7396C12.3328 14.3468 12.8677 13.9894 13.0947 13.4413C13.3218 12.8932 13.1963 12.2623 12.7768 11.8428ZM7.00033 15.4431C6.39583 15.4431 5.90406 14.9513 5.90406 14.3468H8.0966C8.0966 14.9513 7.60484 15.4431 7.00033 15.4431ZM12.1182 13.0368C12.0546 13.1905 11.9059 13.2898 11.7396 13.2898H2.2611C2.09474 13.2898 1.94609 13.1905 1.88243 13.0368C1.81877 12.8831 1.85364 12.7078 1.97128 12.5902C3.13213 11.4293 3.77141 9.88588 3.77141 8.24422V6.98176C3.77141 5.20132 5.2199 3.75284 7.00033 3.75284C8.78077 3.75284 10.2293 5.20132 10.2293 6.98176V8.24422C10.2293 9.88588 10.8686 11.4293 12.0294 12.5902C12.1471 12.7078 12.1819 12.8831 12.1182 13.0368Z" fill="#666666"/>
</svg>
