<svg width="16" height="17" viewBox="0 0 16 17" fill="none" xmlns="http://www.w3.org/2000/svg">
<path d="M15.3913 4.19641L8.32603 0.616502L8.32309 0.615033C8.0085 0.458408 7.63469 0.461908 7.32303 0.624408L4.29275 2.23266C4.26813 2.2431 4.24447 2.25575 4.22181 2.27031L0.5905 4.19756C0.22625 4.38828 0 4.76197 0 5.17325V11.8258C0 12.2371 0.22625 12.6107 0.5905 12.8014L7.32003 16.3731L7.32306 16.3747C7.482 16.4575 7.65716 16.4991 7.83234 16.4991C8.00062 16.4991 8.16897 16.4608 8.32309 16.384L15.3913 12.8026C15.7668 12.6148 16 12.2376 16 11.8177V5.18141C16 4.76144 15.7668 4.38416 15.3913 4.19641ZM7.75741 1.45481C7.80331 1.43125 7.85813 1.43078 7.90444 1.4535L14.5178 4.80444L11.944 6.08585L5.47837 2.66438L7.75741 1.45481ZM7.357 15.3317L1.02844 11.9729L1.02541 11.9713C0.971 11.9429 0.937156 11.8872 0.937156 11.8258V5.59613L7.357 8.94375V15.3317ZM7.83053 8.13375L1.446 4.80453L4.478 3.19538L10.9116 6.59985L7.83053 8.13375ZM15.0628 11.8176C15.0628 11.8803 15.0279 11.9366 14.9718 11.9646L8.29419 15.348V8.94978L11.3687 7.4191V9.02394C11.3687 9.28272 11.5786 9.49253 11.8373 9.49253C12.0961 9.49253 12.3059 9.28272 12.3059 9.02394V6.9525L15.0628 5.58V11.8176Z" fill="#666666"/>
</svg>
