<svg width="22" height="21" viewBox="0 0 22 21" fill="none" xmlns="http://www.w3.org/2000/svg">
<path fill-rule="evenodd" clip-rule="evenodd" d="M4.31344 5.84335C4.29852 5.67833 4.31815 5.512 4.37107 5.35498C4.42398 5.19796 4.50903 5.05369 4.62078 4.93135C4.73254 4.80901 4.86855 4.7113 5.02016 4.64443C5.17176 4.57756 5.33564 4.54301 5.50133 4.54297H19.964C20.1427 4.54304 20.319 4.58323 20.48 4.66057C20.641 4.7379 20.7826 4.8504 20.8944 4.98978C21.0061 5.12915 21.0851 5.29184 21.1256 5.46583C21.166 5.63981 21.1669 5.82067 21.1281 5.99503L19.9061 11.5033C19.6959 12.4499 19.1691 13.2965 18.4127 13.9032C17.6563 14.51 16.7156 14.8405 15.7459 14.8404H9.01901C7.95533 14.8404 6.93009 14.4426 6.14482 13.7252C5.35955 13.0077 4.87103 12.0224 4.7753 10.9631L4.31344 5.84335ZM6.06034 6.24727L6.47279 10.8097C6.53025 11.4456 6.8236 12.037 7.29513 12.4675C7.76665 12.898 8.38221 13.1365 9.02072 13.1361H15.7476C16.3293 13.1359 16.8935 12.9374 17.3471 12.5733C17.8008 12.2092 18.1167 11.7014 18.2427 11.1335L19.3283 6.24727H6.06034Z" fill="#666666"/>
<path fill-rule="evenodd" clip-rule="evenodd" d="M0.789062 1.68418C0.789062 1.45818 0.878842 1.24143 1.03865 1.08162C1.19846 0.921811 1.41521 0.832031 1.64121 0.832031H4.63056C4.839 0.832243 5.04014 0.908846 5.19591 1.04735C5.35169 1.18585 5.4513 1.37664 5.47589 1.58363L6.16102 7.37996C6.18746 7.60461 6.12358 7.83056 5.98343 8.00811C5.84328 8.18565 5.63833 8.30025 5.41368 8.3267C5.18904 8.35314 4.96309 8.28926 4.78554 8.14911C4.60799 8.00895 4.49339 7.80401 4.46695 7.57936L3.87214 2.53463H1.64121C1.41521 2.53463 1.19846 2.44485 1.03865 2.28504C0.878842 2.12523 0.789063 1.91019 0.789062 1.68418ZM8.45842 19.2947C8.68442 19.2947 8.90117 19.2049 9.06098 19.0451C9.22079 18.8853 9.31057 18.6686 9.31057 18.4426C9.31057 18.2166 9.22079 17.9998 9.06098 17.84C8.90117 17.6802 8.68442 17.5904 8.45842 17.5904C8.23242 17.5904 8.01567 17.6802 7.85586 17.84C7.69605 17.9998 7.60627 18.2166 7.60627 18.4426C7.60627 18.6686 7.69605 18.8853 7.85586 19.0451C8.01567 19.2049 8.23242 19.2947 8.45842 19.2947ZM8.45842 20.999C8.79414 20.999 9.12657 20.9329 9.43673 20.8044C9.74689 20.676 10.0287 20.4876 10.2661 20.2503C10.5035 20.0129 10.6918 19.7311 10.8203 19.4209C10.9487 19.1107 11.0149 18.7783 11.0149 18.4426C11.0149 18.1069 10.9487 17.7744 10.8203 17.4643C10.6918 17.1541 10.5035 16.8723 10.2661 16.6349C10.0287 16.3975 9.74689 16.2092 9.43673 16.0807C9.12657 15.9523 8.79414 15.8861 8.45842 15.8861C7.78041 15.8861 7.13016 16.1555 6.65073 16.6349C6.17131 17.1143 5.90197 17.7646 5.90197 18.4426C5.90197 19.1206 6.17131 19.7708 6.65073 20.2503C7.13016 20.7297 7.78041 20.999 8.45842 20.999ZM16.2334 19.2947C16.4594 19.2947 16.6762 19.2049 16.836 19.0451C16.9958 18.8853 17.0856 18.6686 17.0856 18.4426C17.0856 18.2166 16.9958 17.9998 16.836 17.84C16.6762 17.6802 16.4594 17.5904 16.2334 17.5904C16.0074 17.5904 15.7907 17.6802 15.6309 17.84C15.4711 17.9998 15.3813 18.2166 15.3813 18.4426C15.3813 18.6686 15.4711 18.8853 15.6309 19.0451C15.7907 19.2049 16.0074 19.2947 16.2334 19.2947ZM16.2334 20.999C16.5692 20.999 16.9016 20.9329 17.2118 20.8044C17.5219 20.676 17.8037 20.4876 18.0411 20.2503C18.2785 20.0129 18.4668 19.7311 18.5953 19.4209C18.7238 19.1107 18.7899 18.7783 18.7899 18.4426C18.7899 18.1069 18.7238 17.7744 18.5953 17.4643C18.4668 17.1541 18.2785 16.8723 18.0411 16.6349C17.8037 16.3975 17.5219 16.2092 17.2118 16.0807C16.9016 15.9523 16.5692 15.8861 16.2334 15.8861C15.5554 15.8861 14.9052 16.1555 14.4258 16.6349C13.9463 17.1143 13.677 17.7646 13.677 18.4426C13.677 19.1206 13.9463 19.7708 14.4258 20.2503C14.9052 20.7297 15.5554 20.999 16.2334 20.999Z" fill="#666666"/>
</svg>
