<svg width="16" height="16" viewBox="0 0 16 16" fill="none" xmlns="http://www.w3.org/2000/svg">
<g clip-path="url(#clip0_7292_3600)">
<path d="M15.351 11.0606C13.3055 10.724 12.3837 8.62882 12.3464 8.53989L12.3378 8.52268C12.2336 8.31039 12.2087 8.1354 12.2661 8.00248C12.378 7.74047 12.8064 7.60468 13.0894 7.51479C13.1717 7.48897 13.2491 7.46411 13.3132 7.43925C13.5924 7.32928 13.7913 7.20975 13.9233 7.07492C14.0801 6.91331 14.1107 6.7584 14.1088 6.65799C14.104 6.41319 13.9166 6.19517 13.6173 6.08902C13.5114 6.04686 13.3984 6.02543 13.2845 6.02591C13.1779 6.02441 13.0722 6.04594 12.9747 6.08902C12.7356 6.2009 12.5214 6.2621 12.3369 6.27071C12.2642 6.26867 12.1925 6.25311 12.1255 6.22481L12.1437 5.92933L12.1466 5.88534C12.2125 4.84972 12.2938 3.56165 11.9515 2.79665C11.7312 2.29251 11.413 1.83713 11.0153 1.45695C10.6873 1.14829 10.3085 0.898551 9.89555 0.718722C9.34433 0.47823 8.74987 0.352636 8.14848 0.349609L8.11023 0.349609L7.84726 0.352478C7.50779 0.352478 6.8279 0.400291 6.09828 0.721591C5.68655 0.901127 5.30899 1.15056 4.98233 1.45886C4.58661 1.83878 4.26977 2.29307 4.04999 2.7957C3.70765 3.55974 3.78893 4.84781 3.85396 5.88247V5.88438L3.875 6.22385C3.7957 6.25688 3.71033 6.27285 3.62446 6.27071C3.4313 6.27071 3.2018 6.20951 2.94265 6.08807C2.86121 6.05153 2.77276 6.03325 2.68351 6.03452C2.52221 6.03616 2.3642 6.08036 2.22546 6.16265C2.0476 6.26688 1.93285 6.41319 1.9013 6.57671C1.88121 6.68381 1.88217 6.89705 2.11932 7.11317C2.25033 7.23174 2.44158 7.34171 2.68925 7.43925C2.75427 7.46507 2.83173 7.48897 2.91301 7.51479C3.19606 7.60468 3.62541 7.74047 3.7373 8.00248C3.79371 8.1354 3.76885 8.31039 3.66462 8.52268L3.65697 8.53989C3.45726 8.97126 3.1978 9.37236 2.88623 9.73138C2.61742 10.0481 2.30438 10.3244 1.95676 10.5518C1.56134 10.8093 1.11694 10.9822 0.651476 11.0596C0.564261 11.0737 0.485366 11.1196 0.430071 11.1885C0.374777 11.2574 0.347018 11.3444 0.35217 11.4325C0.355039 11.4851 0.36747 11.5377 0.389464 11.5884V11.5894C0.463095 11.7605 0.632351 11.9049 0.907751 12.0321C1.24435 12.188 1.74734 12.319 2.40428 12.4213C2.43775 12.4844 2.47218 12.6422 2.49608 12.7503C2.52095 12.865 2.54676 12.9836 2.58406 13.1089C2.62422 13.2446 2.7275 13.4072 2.99429 13.4072C3.09565 13.4072 3.21136 13.3843 3.34619 13.3584C3.54318 13.3202 3.81284 13.2676 4.14848 13.2676C4.33495 13.2676 4.52811 13.2838 4.72223 13.3164C5.09708 13.3785 5.4203 13.6061 5.79419 13.87C6.34116 14.2564 6.96081 14.6934 7.9075 14.6934L7.98496 14.6905C8.01556 14.6924 8.05476 14.6934 8.09493 14.6934C9.04161 14.6934 9.66126 14.2564 10.2082 13.871L10.2092 13.87C10.5831 13.6071 10.9063 13.3795 11.2812 13.3173C11.4753 13.2848 11.6684 13.2685 11.8549 13.2685C12.1762 13.2685 12.4306 13.3097 12.6572 13.3537C12.8054 13.3823 12.9202 13.3967 13.0091 13.3967H13.0263C13.1156 13.4006 13.2036 13.3736 13.2752 13.3201C13.3469 13.2666 13.3978 13.1899 13.4193 13.1031C13.4529 12.9856 13.4823 12.867 13.5073 12.7474C13.5293 12.646 13.5656 12.4835 13.5981 12.4204C14.2551 12.3171 14.7581 12.187 15.0947 12.0312C15.3691 11.904 15.5384 11.7596 15.612 11.5894C15.6341 11.5395 15.6471 11.4861 15.6503 11.4316C15.6551 11.3437 15.6272 11.2571 15.5719 11.1885C15.5167 11.12 15.4379 11.0744 15.351 11.0606Z" fill="#A5A5A5"/>
</g>
<defs>
<clipPath id="clip0_7292_3600">
<rect width="15.3" height="15.3" fill="white" transform="translate(0.351562 0.349609)"/>
</clipPath>
</defs>
</svg>
