<svg width="16" height="12" viewBox="0 0 16 12" fill="none" xmlns="http://www.w3.org/2000/svg">
<path d="M15.0807 1.60824C14.5483 1.83922 13.9852 1.99192 13.4091 2.06157C14.0169 1.69842 14.4725 1.12713 14.6911 0.453654C14.1199 0.793699 13.4946 1.03328 12.8424 1.16199C12.4064 0.689226 11.8259 0.374531 11.1918 0.267257C10.5578 0.159984 9.90603 0.2662 9.33883 0.569247C8.77163 0.872294 8.32106 1.35503 8.05777 1.94175C7.79449 2.52846 7.73339 3.18597 7.88406 3.81115C6.72907 3.75274 5.59929 3.452 4.56811 2.92847C3.53693 2.40495 2.62741 1.67035 1.89865 0.772404C1.64303 1.21877 1.50872 1.72428 1.50906 2.23865C1.50816 2.71634 1.62538 3.18684 1.85031 3.60826C2.07523 4.02968 2.40087 4.38895 2.79823 4.65407C2.33638 4.6415 1.8844 4.51757 1.48073 4.29282V4.32824C1.48419 4.99754 1.71873 5.64509 2.14466 6.16138C2.5706 6.67766 3.16179 7.03098 3.81823 7.16157C3.56553 7.23847 3.30318 7.27902 3.03906 7.28199C2.85623 7.27985 2.67386 7.26327 2.49365 7.2324C2.68058 7.80815 3.04234 8.3113 3.52857 8.67185C4.01481 9.0324 4.60135 9.23242 5.20656 9.24407C4.18458 10.0482 2.92281 10.4871 1.6224 10.4907C1.38562 10.4915 1.14904 10.4773 0.914062 10.4482C2.24178 11.3055 3.78905 11.7606 5.36948 11.7587C6.46009 11.77 7.54203 11.5639 8.5521 11.1524C9.56217 10.7409 10.4801 10.1322 11.2523 9.36201C12.0245 8.59177 12.6355 7.67539 13.0496 6.66638C13.4637 5.65737 13.6726 4.57596 13.6641 3.48532C13.6641 3.3649 13.6641 3.2374 13.6641 3.1099C14.2199 2.6954 14.6993 2.18725 15.0807 1.60824V1.60824Z" fill="#A5A5A5"/>
</svg>
