<svg width="14" height="17" viewBox="0 0 14 17" fill="none" xmlns="http://www.w3.org/2000/svg">
<path d="M10.5371 5.49419C7.68116 3.75666 9.02041 1.30425 9.07788 1.20231C9.16125 1.05725 9.161 0.878781 9.07719 0.733969C8.99341 0.589156 8.83878 0.5 8.67147 0.5C7.20138 0.5 6.05019 0.917688 5.24991 1.7415C3.88244 3.14916 3.94588 5.34 3.97294 6.27556C3.97594 6.37919 3.97853 6.46875 3.97853 6.53525C3.97853 7.22988 4.08997 7.87116 4.18831 8.43694C4.25169 8.80153 4.30641 9.11641 4.31613 9.36397C4.32653 9.62897 4.27816 9.68972 4.27609 9.69216C4.26919 9.70034 4.21169 9.73094 4.05622 9.73094C3.87891 9.73094 3.74819 9.673 3.63238 9.54316C3.18 9.03591 3.14872 7.65084 3.23522 6.89731C3.25069 6.76444 3.20866 6.63131 3.11969 6.53144C3.03075 6.43156 2.90338 6.37444 2.76963 6.37444C1.55259 6.37444 0.643188 8.36469 0.643188 10.1442C0.643188 10.9807 0.811438 11.8002 1.14328 12.5798C1.46409 13.3335 1.92156 14.0138 2.50303 14.6016C3.71403 15.8258 5.31069 16.5 6.99894 16.5C8.69397 16.5 10.2902 15.8353 11.4937 14.6284C12.694 13.4247 13.355 11.8321 13.355 10.1441C13.355 7.99031 11.6698 6.18328 10.5371 5.49419ZM6.99894 15.5625C4.06197 15.5625 1.58072 13.0812 1.58072 10.1441C1.58072 9.42984 1.75116 8.68006 2.04831 8.08709C2.11772 7.94856 2.18894 7.82972 2.25922 7.72959C2.26706 8.50294 2.38956 9.55716 2.93191 10.1662C3.22447 10.4948 3.61325 10.6684 4.05625 10.6684C4.47009 10.6684 4.78547 10.543 4.99353 10.2956C5.38253 9.83316 5.26313 9.14616 5.112 8.27637C5.02016 7.74794 4.91606 7.14897 4.91606 6.53522C4.91606 6.45512 4.91328 6.35934 4.91009 6.24837C4.88444 5.36219 4.83103 3.51816 5.92238 2.39475C6.41228 1.89041 7.09628 1.58347 7.96159 1.47844C7.86391 1.80281 7.77969 2.21459 7.77644 2.67566C7.76925 3.69153 8.15781 5.14406 10.0498 6.29513C10.9652 6.85203 12.4175 8.38944 12.4175 10.1442C12.4175 13.1318 9.98672 15.5625 6.99894 15.5625Z" fill="#F55157"/>
</svg>
